<svg xmlns="http://www.w3.org/2000/svg" viewBox="7021 9776.5 61.5 40.834">
  <defs>
    <style>
      .cls-1 {
        fill-rule: evenodd;
      }

      .cls-2 {
        fill: none;
      }

      .cls-3 {
        stroke: #fff;
      }

      .cls-4 {
        fill: #fff;
      }
    </style>
  </defs>
  <g id="Group_5658" data-name="Group 5658" transform="translate(8434 8965)">
    <path id="Camera-Icon" class="cls-1" d="M36.7,36.522,40.4,31.143A3.37,3.37,0,0,1,42.747,30H54.415a3.36,3.36,0,0,1,2.344,1.143l3.706,5.378h7.786a2.9,2.9,0,0,1,2.911,2.895V60.439a2.9,2.9,0,0,1-2.911,2.895H28.911A2.9,2.9,0,0,1,26,60.439V39.417a2.9,2.9,0,0,1,2.911-2.895ZM48.581,59.711a10.145,10.145,0,1,0-10.2-10.145A10.172,10.172,0,0,0,48.581,59.711Zm0-2.174a7.971,7.971,0,1,1,8.013-7.971A7.992,7.992,0,0,1,48.581,57.537ZM28.914,32.9a1.449,1.449,0,0,1,1.455-1.449h2.916A1.449,1.449,0,0,1,34.741,32.9v1.449H28.914Zm32.051,8.7a1.449,1.449,0,1,0-1.457-1.449A1.453,1.453,0,0,0,60.964,41.594Z" transform="translate(-1439 789)"/>
    <path id="Bounds" class="cls-2" d="M0,0H19.388V19.388H0V0Z" transform="translate(-1399.694 829)"/>
    <g id="Group_5657" data-name="Group 5657" transform="translate(2 -1)">
      <circle id="Ellipse_367" data-name="Ellipse 367" class="cls-3" cx="11.5" cy="11.5" r="11.5" transform="translate(-1377 813)"/>
      <path id="Add" class="cls-4" d="M5.864,0H4.8V4.8H0V5.864H4.8v4.8H5.864v-4.8h4.8V4.8h-4.8V0Z" transform="translate(-1370.924 818.77)"/>
    </g>
  </g>
</svg>
